<mxfile host="65bd71144e">
    <diagram id="nx54PBst1ol6-2TKztC1" name="Page-1">
        <mxGraphModel dx="967" dy="792" grid="1" gridSize="10" guides="1" tooltips="1" connect="1" arrows="1" fold="1" page="1" pageScale="1" pageWidth="827" pageHeight="1169" background="#ffffff" math="0" shadow="0">
            <root>
                <mxCell id="0"/>
                <mxCell id="1" parent="0"/>
                <mxCell id="4" value="" style="edgeStyle=none;html=1;fontColor=#000000;strokeColor=#000000;sketch=1;curveFitting=1;jiggle=2;" edge="1" parent="1" source="2" target="3">
                    <mxGeometry relative="1" as="geometry"/>
                </mxCell>
                <mxCell id="6" value="" style="edgeStyle=none;html=1;strokeColor=#000000;fontColor=#000000;sketch=1;curveFitting=1;jiggle=2;" edge="1" parent="1" source="2" target="5">
                    <mxGeometry relative="1" as="geometry"/>
                </mxCell>
                <mxCell id="2" value="BLOT" style="rounded=1;whiteSpace=wrap;html=1;fillColor=#FFFFFF;fontStyle=1;fontColor=#000000;strokeColor=#000000;sketch=1;curveFitting=1;jiggle=2;" vertex="1" parent="1">
                    <mxGeometry x="294" y="190" width="120" height="60" as="geometry"/>
                </mxCell>
                <mxCell id="3" value="DOM" style="rounded=1;whiteSpace=wrap;html=1;fillColor=#FFFFFF;fontStyle=1;fontColor=#000000;strokeColor=#000000;sketch=1;curveFitting=1;jiggle=2;" vertex="1" parent="1">
                    <mxGeometry x="94" y="190" width="120" height="60" as="geometry"/>
                </mxCell>
                <mxCell id="7" style="edgeStyle=none;html=1;entryX=1;entryY=0.5;entryDx=0;entryDy=0;strokeColor=#000000;fontColor=#000000;sketch=1;curveFitting=1;jiggle=2;" edge="1" parent="1" source="5" target="2">
                    <mxGeometry relative="1" as="geometry"/>
                </mxCell>
                <mxCell id="5" value="DELTA" style="rounded=1;whiteSpace=wrap;html=1;fillColor=#FFFFFF;fontStyle=1;fontColor=#000000;strokeColor=#000000;sketch=1;curveFitting=1;jiggle=2;" vertex="1" parent="1">
                    <mxGeometry x="494" y="190" width="120" height="60" as="geometry"/>
                </mxCell>
                <mxCell id="8" value="" style="swimlane;startSize=0;strokeColor=#000000;fontColor=#000000;fillColor=#FFFFFF;swimlaneFillColor=none;gradientColor=none;sketch=1;curveFitting=1;jiggle=2;" vertex="1" parent="1">
                    <mxGeometry x="70" y="150" width="570" height="140" as="geometry"/>
                </mxCell>
            </root>
        </mxGraphModel>
    </diagram>
</mxfile>